<?xml version="1.0" encoding="UTF-8" standalone="no"?>
<svg
   xmlns:dc="http://purl.org/dc/elements/1.1/"
   xmlns:cc="http://creativecommons.org/ns#"
   xmlns:rdf="http://www.w3.org/1999/02/22-rdf-syntax-ns#"
   xmlns:svg="http://www.w3.org/2000/svg"
   xmlns="http://www.w3.org/2000/svg"
   xmlns:sodipodi="http://sodipodi.sourceforge.net/DTD/sodipodi-0.dtd"
   xmlns:inkscape="http://www.inkscape.org/namespaces/inkscape"
   width="154.18762mm"
   height="154.21483mm"
   viewBox="0 0 154.18762 154.21483"
   version="1.1"
   id="svg8"
   inkscape:version="1.0.2 (e86c870879, 2021-01-15, custom)"
   sodipodi:docname="drawing.svg">
  <defs
     id="defs2">
    <inkscape:path-effect
       effect="powerstroke"
       id="path-effect936"
       is_visible="true"
       lpeversion="1"
       offset_points="6,5.49374"
       sort_points="true"
       interpolator_type="CubicBezierJohan"
       interpolator_beta="0.2"
       start_linecap_type="zerowidth"
       linejoin_type="extrp_arc"
       miter_limit="4"
       scale_width="1"
       end_linecap_type="zerowidth" />
    <inkscape:path-effect
       effect="powerstroke"
       id="path-effect932"
       is_visible="true"
       lpeversion="1"
       offset_points="6,5.49374"
       sort_points="true"
       interpolator_type="CubicBezierJohan"
       interpolator_beta="0.2"
       start_linecap_type="zerowidth"
       linejoin_type="extrp_arc"
       miter_limit="4"
       scale_width="1"
       end_linecap_type="zerowidth" />
    <inkscape:path-effect
       effect="powerstroke"
       id="path-effect928"
       is_visible="true"
       lpeversion="1"
       offset_points="5,5.49374"
       sort_points="true"
       interpolator_type="CubicBezierJohan"
       interpolator_beta="0.2"
       start_linecap_type="zerowidth"
       linejoin_type="extrp_arc"
       miter_limit="4"
       scale_width="1"
       end_linecap_type="zerowidth" />
    <inkscape:path-effect
       effect="powerstroke"
       id="path-effect924"
       is_visible="true"
       lpeversion="1"
       offset_points="1,5.49374"
       sort_points="true"
       interpolator_type="CubicBezierJohan"
       interpolator_beta="0.2"
       start_linecap_type="zerowidth"
       linejoin_type="extrp_arc"
       miter_limit="4"
       scale_width="1"
       end_linecap_type="zerowidth" />
    <inkscape:path-effect
       effect="powerstroke"
       id="path-effect920"
       is_visible="true"
       lpeversion="1"
       offset_points="3,0.1322915"
       sort_points="true"
       interpolator_type="CubicBezierJohan"
       interpolator_beta="0.2"
       start_linecap_type="zerowidth"
       linejoin_type="extrp_arc"
       miter_limit="4"
       scale_width="1"
       end_linecap_type="zerowidth" />
    <inkscape:path-effect
       effect="powerstroke"
       id="path-effect914"
       is_visible="true"
       lpeversion="1"
       offset_points="3,0.1322915"
       sort_points="true"
       interpolator_type="CubicBezierJohan"
       interpolator_beta="0.2"
       start_linecap_type="zerowidth"
       linejoin_type="extrp_arc"
       miter_limit="4"
       scale_width="1"
       end_linecap_type="zerowidth" />
    <inkscape:path-effect
       effect="powerstroke"
       id="path-effect908"
       is_visible="true"
       lpeversion="1"
       offset_points="4,0.1322915"
       sort_points="true"
       interpolator_type="CubicBezierJohan"
       interpolator_beta="0.2"
       start_linecap_type="zerowidth"
       linejoin_type="extrp_arc"
       miter_limit="4"
       scale_width="1"
       end_linecap_type="zerowidth" />
    <inkscape:path-effect
       effect="powerstroke"
       id="path-effect902"
       is_visible="true"
       lpeversion="1"
       offset_points="3,0.1322915"
       sort_points="true"
       interpolator_type="CubicBezierJohan"
       interpolator_beta="0.2"
       start_linecap_type="zerowidth"
       linejoin_type="extrp_arc"
       miter_limit="4"
       scale_width="1"
       end_linecap_type="zerowidth" />
    <inkscape:path-effect
       effect="powerstroke"
       id="path-effect896"
       is_visible="true"
       lpeversion="1"
       offset_points="9,0.1322915"
       sort_points="true"
       interpolator_type="CubicBezierJohan"
       interpolator_beta="0.2"
       start_linecap_type="zerowidth"
       linejoin_type="extrp_arc"
       miter_limit="4"
       scale_width="1"
       end_linecap_type="zerowidth" />
    <inkscape:path-effect
       effect="powerstroke"
       id="path-effect892"
       is_visible="true"
       lpeversion="1"
       offset_points="0,0.1322915"
       sort_points="true"
       interpolator_type="CubicBezierJohan"
       interpolator_beta="0.2"
       start_linecap_type="zerowidth"
       linejoin_type="extrp_arc"
       miter_limit="4"
       scale_width="1"
       end_linecap_type="zerowidth" />
  </defs>
  <sodipodi:namedview
     id="base"
     pagecolor="#ffffff"
     bordercolor="#666666"
     borderopacity="1.0"
     inkscape:pageopacity="0.0"
     inkscape:pageshadow="2"
     inkscape:zoom="0.90453125"
     inkscape:cx="410.60071"
     inkscape:cy="292.73969"
     inkscape:document-units="mm"
     inkscape:current-layer="layer1"
     inkscape:document-rotation="0"
     showgrid="false"
     fit-margin-top="1"
     fit-margin-left="1"
     fit-margin-right="1"
     fit-margin-bottom="1"
     lock-margins="true"
     inkscape:window-width="1920"
     inkscape:window-height="1017"
     inkscape:window-x="1912"
     inkscape:window-y="-8"
     inkscape:window-maximized="1" />
  <metadata
     id="metadata5">
    <rdf:RDF>
      <cc:Work
         rdf:about="">
        <dc:format>image/svg+xml</dc:format>
        <dc:type
           rdf:resource="http://purl.org/dc/dcmitype/StillImage" />
        <dc:title></dc:title>
      </cc:Work>
    </rdf:RDF>
  </metadata>
  <g
     inkscape:label="Layer 1"
     inkscape:groupmode="layer"
     id="layer1"
     transform="translate(0.55557584,0.44290264)">
    <path
       sodipodi:type="star"
       style="fill:#ffff00;fill-rule:evenodd;stroke-width:0.264583"
       id="path841"
       sodipodi:sides="3"
       sodipodi:cx="54.06086"
       sodipodi:cy="94.15873"
       sodipodi:r1="26.061176"
       sodipodi:r2="13.030589"
       sodipodi:arg1="0.52359878"
       sodipodi:arg2="1.5707963"
       inkscape:flatsided="true"
       inkscape:rounded="0"
       inkscape:randomized="0"
       d="m 76.6305,107.18932 -45.139281,0 22.569641,-39.091767 z"
       inkscape:transform-center-y="-6.5152958" />
    <path
       sodipodi:type="star"
       style="fill:#ffff00;fill-rule:evenodd;stroke-width:0.264583"
       id="path841-7"
       sodipodi:sides="3"
       sodipodi:cx="99.200142"
       sodipodi:cy="94.15873"
       sodipodi:r1="26.061176"
       sodipodi:r2="13.030589"
       sodipodi:arg1="0.52359878"
       sodipodi:arg2="1.5707963"
       inkscape:flatsided="true"
       inkscape:rounded="0"
       inkscape:randomized="0"
       inkscape:transform-center-y="-6.5152958"
       d="m 121.76978,107.18932 -45.139279,0 22.569641,-39.091767 z" />
    <path
       sodipodi:type="star"
       style="fill:#ffff00;fill-rule:evenodd;stroke-width:0.264583"
       id="path841-5"
       sodipodi:sides="3"
       sodipodi:cx="76.630501"
       sodipodi:cy="55.066956"
       sodipodi:r1="26.061176"
       sodipodi:r2="13.030589"
       sodipodi:arg1="0.52359878"
       sodipodi:arg2="1.5707963"
       inkscape:flatsided="true"
       inkscape:rounded="0"
       inkscape:randomized="0"
       inkscape:transform-center-y="-6.5152958"
       d="m 99.200141,68.097544 -45.139281,0 22.569641,-39.091765 z" />
    <path
       style="fill:#6d0000;fill-opacity:1;stroke:none;stroke-width:0.514077;stroke-miterlimit:4;stroke-dasharray:none;stroke-opacity:1"
       d="M 69.1265,152.48905 C 56.878684,151.24301 44.805972,146.90927 34.610465,140.0988 29.85496,136.92219 27.00471,134.60358 23.055851,130.69941 2.4063766,110.28364 -4.8092283,80.126818 4.3602372,52.563168 9.7479052,36.367698 20.455595,22.457973 34.850013,12.955717 44.207471,6.7785317 54.373863,2.9358927 66.201413,1.1056797 c 4.720214,-0.73041398 16.03371,-0.73166998 20.768122,-0.0024 12.023261,1.85225 22.195675,5.710883 31.694615,12.0225033 4.54614,3.020705 7.65973,5.58061 11.75901,9.66792 6.17573,6.157695 10.66459,12.418295 14.47545,20.188885 2.81262,5.73512 4.09176,9.17452 5.54102,14.89889 1.8216,7.19503 2.19241,10.36458 2.19241,18.73962 0,8.37504 -0.37081,11.54459 -2.19241,18.73962 -1.44926,5.724372 -2.7284,9.163772 -5.54102,14.898892 -3.80544,7.75953 -8.27272,13.99134 -14.47801,20.19662 -6.03616,6.03617 -11.98009,10.33736 -19.6116,14.19151 -8.71942,4.40359 -17.313049,6.88077 -27.307433,7.87159 -3.522147,0.34917 -10.795355,0.33381 -14.375067,-0.0304 z m -2.61616,-7.16027 c 1.822074,-0.5411 6.115545,-2.64274 8.460862,-4.14157 1.601912,-1.02374 1.604105,-1.02419 2.486324,-0.5016 6.299999,3.73183 8.865716,4.8473 11.608921,5.04706 1.603942,0.11681 2.186506,0.0279 3.277542,-0.50028 2.052236,-0.99347 6.313461,-5.76398 8.867011,-9.92677 0.0371,-0.0604 1.55362,0.11929 3.37015,0.39932 1.81652,0.28004 4.65622,0.50591 6.31044,0.50195 3.59087,-0.009 5.20621,-0.63593 6.67911,-2.59387 1.14855,-1.52678 2.55731,-5.38241 3.3064,-9.04929 0.31615,-1.54758 0.6153,-2.85377 0.66477,-2.90264 0.0495,-0.0489 1.53787,-0.41491 3.30755,-0.81341 4.18292,-0.94194 7.6461,-2.29353 9.12898,-3.56282 1.71778,-1.47037 2.1862,-2.88591 2.17892,-6.58462 -0.005,-2.43519 -0.56651,-7.52151 -0.99794,-9.03622 -0.0397,-0.13931 0.97293,-0.96067 2.25026,-1.825242 3.14206,-2.12672 6.98999,-5.81259 7.78703,-7.45907 0.52817,-1.09103 0.61709,-1.6736 0.50028,-3.27754 -0.19989,-2.74499 -1.31078,-5.29946 -5.05303,-11.61932 l -0.52902,-0.8934 1.06901,-1.67113 c 1.53582,-2.40087 3.56151,-6.52814 4.10915,-8.37226 1.00565,-3.38637 0.45841,-5.52942 -2.11586,-8.28594 -1.16438,-1.24683 -5.86254,-4.95432 -7.52162,-5.93559 -0.50399,-0.29809 -0.50488,-0.43802 -0.0215,-3.38357 0.57864,-3.52608 0.67474,-8.37875 0.20078,-10.13888 -0.47017,-1.74609 -1.53625,-2.83816 -3.9136,-4.00901 -2.00417,-0.98706 -8.27388,-2.77946 -9.72237,-2.77946 -0.56494,0 -0.72045,-0.19465 -0.8764,-1.09691 -0.85024,-4.919177 -2.71571,-10.0671 -4.34416,-11.988049 -1.05391,-1.243214 -3.08313,-1.833478 -6.29555,-1.831269 -2.19504,0.0016 -7.53616,0.623075 -8.80183,1.024297 -0.3046,0.09656 -1.04197,-0.713234 -2.333868,-2.563119 -3.553627,-5.088464 -7.114199,-8.0929323 -9.610238,-8.1092673 -2.400951,-0.01572 -7.441409,2.031431 -11.694131,4.7494873 l -1.560356,0.997276 -3.119784,-1.857957 c -3.70795,-2.2082313 -7.01598,-3.5450413 -9.385271,-3.7926813 -1.447041,-0.151246 -1.95413,-0.06982 -3.141459,0.504429 -1.837221,0.888568 -4.70468,3.8204243 -7.234303,7.3967633 -1.147787,1.622726 -2.170107,2.790708 -2.374141,2.712413 -0.197085,-0.07563 -1.777436,-0.360035 -3.511894,-0.632013 -4.220884,-0.661877 -8.586139,-0.502611 -10.267167,0.374594 -2.196769,1.146334 -4.113477,5.170956 -5.315349,11.160956 l -0.552355,2.75287 -2.607082,0.52338 c -6.36297,1.27739 -10.34198,3.21422 -11.388712,5.5436 -0.490812,1.09224 -0.576331,1.91009 -0.563377,5.38781 0.01019,2.73147 0.183745,4.88032 0.519983,6.43747 0.320283,1.48325 0.397036,2.37326 0.210042,2.43559 -0.844301,0.28144 -5.638263,3.95608 -7.320264,5.6111 -2.5264533,2.48591 -3.3527417,4.16175 -3.1493433,6.38735 0.2079202,2.27507 1.6091006,5.7433 3.8204983,9.45656 l 1.857955,3.11979 -0.997276,1.56036 c -2.7430012,4.29174 -4.7559115,9.22505 -4.7559115,11.65593 0,2.59601 3.1326565,6.28559 8.3402385,9.82296 1.731039,1.175852 2.444824,1.828792 2.347224,2.147162 -0.443233,1.44578 -1.032486,6.38775 -1.033497,8.66776 -0.0016,3.36707 0.568772,5.3718 1.831816,6.43963 1.536444,1.29898 4.817441,2.68699 8.258562,3.49373 1.769678,0.4149 3.536926,0.84606 3.927213,0.95815 0.628808,0.18058 0.781158,0.53689 1.337799,3.12887 0.797002,3.71121 1.451033,5.70553 2.570988,7.83964 1.059244,2.01844 2.13518,2.99406 3.804523,3.44985 1.771137,0.48356 6.517426,0.39111 10.101633,-0.19679 2.970366,-0.48722 3.104234,-0.48638 3.399126,0.0212 0.168841,0.29061 1.244624,1.79193 2.390629,3.33626 4.616948,6.2217 7.279032,7.63659 11.826939,6.28601 z"
       id="path996" />
  </g>
</svg>
